# xmcd
#
# Track frame offsets:
#	182
#	6112
#	32597
#
# Disc length: 1042
#
# Revision: 1
# Processed by: cddbd v1.5.2PL0 Copyright (c) Steve Scherf et al.
# Submitted via: Broken Cross Disk Manager 3.94.2201
#
DISCID=16041003
DTITLE=Bill Clinton - Two Presidents' Jam Session Praha '94
DYEAR=1994
DGENRE=Jazz
TTITLE0=Indroduction
TTITLE1=Summertime - G. Gershwin
TTITLE2=My Funny Valentine - R. Rodgers
EXTD=YEAR: 1994
EXTT0=
EXTT1=
EXTT2=
PLAYORDER=
